<svg width="74" height="45" viewBox="0 0 74 45" fill="none" xmlns="http://www.w3.org/2000/svg">
<path d="M0.847717 20.9101C-0.306503 22.0988 -0.278572 23.9981 0.910102 25.1523L20.2807 43.9614C21.4693 45.1156 23.3686 45.0877 24.5228 43.899C25.6771 42.7103 25.6491 40.811 24.4604 39.6568L7.24218 22.9376L23.9614 5.71935C25.1156 4.53067 25.0877 2.63138 23.899 1.47717C22.7103 0.322946 20.811 0.350877 19.6568 1.53955L0.847717 20.9101ZM71.0441 24.9997C72.7008 24.9753 74.024 23.6126 73.9997 21.9559C73.9753 20.2992 72.6126 18.976 70.9559 19.0003L71 22L71.0441 24.9997ZM3 23L3.04411 25.9997L71.0441 24.9997L71 22L70.9559 19.0003L2.95589 20.0003L3 23Z" fill="black"/>
</svg>
