<svg width="27" height="13" viewBox="0 0 27 13" fill="none" xmlns="http://www.w3.org/2000/svg">
<path d="M20.8125 1.10938H6.8125C3.77493 1.10938 1.3125 3.57181 1.3125 6.60938C1.3125 9.64694 3.77493 12.1094 6.8125 12.1094H20.8125C23.8501 12.1094 26.3125 9.64694 26.3125 6.60938C26.3125 3.57181 23.8501 1.10938 20.8125 1.10938Z" fill="white"/>
<path d="M14.8125 1.60938H21.8125C23.1386 1.60938 24.4104 2.13616 25.348 3.07384C26.2857 4.01152 26.8125 5.28329 26.8125 6.60938C26.8125 7.93546 26.2857 9.20723 25.348 10.1449C24.4104 11.0826 23.1386 11.6094 21.8125 11.6094H11.8125L14.8125 1.60938Z" fill="#0066FF"/>
<path d="M5.3125 7.10938L7.0865 8.88338C7.11342 8.90998 7.14603 8.93013 7.18187 8.9423C7.21771 8.95446 7.25585 8.95833 7.2934 8.95362C7.33096 8.9489 7.36695 8.93571 7.39867 8.91506C7.43039 8.8944 7.457 8.86681 7.4765 8.83438L10.3125 4.10938" stroke="#0066FF" stroke-linecap="round"/>
<path d="M17.3125 4.10938L19.8125 6.60938M19.8125 6.60938L22.3125 9.10938M19.8125 6.60938L22.3125 4.10938M19.8125 6.60938L17.3125 9.10938" stroke="white" stroke-linecap="round"/>
<path d="M20.8125 1.10938H6.8125C3.77493 1.10938 1.3125 3.57181 1.3125 6.60938C1.3125 9.64694 3.77493 12.1094 6.8125 12.1094H20.8125C23.8501 12.1094 26.3125 9.64694 26.3125 6.60938C26.3125 3.57181 23.8501 1.10938 20.8125 1.10938Z" stroke="#0066FF"/>
</svg>
